<?xml version="1.0" standalone="no"?>
<!DOCTYPE svg PUBLIC "-//W3C//DTD SVG 20010904//EN"
 "http://www.w3.org/TR/2001/REC-SVG-20010904/DTD/svg10.dtd">
<svg version="1.0" xmlns="http://www.w3.org/2000/svg"
 width="1376.000000pt" height="1376.000000pt" viewBox="0 0 1376.000000 1376.000000"
 preserveAspectRatio="xMidYMid meet">
<metadata>
Created by potrace 1.11, written by Peter Selinger 2001-2013
</metadata>
<g transform="translate(0.000000,1376.000000) scale(0.100000,-0.100000)"
fill="#000000" stroke="none">
<path d="M2760 13740 c-4 -3 -8 -3095 -7 -6873 l0 -6867 1386 2 1386 3 1 6868
c1 3777 -2 6867 -5 6868 -22 4 -2754 3 -2761 -1z"/>
<path d="M8102 13740 c-4 -3 -7 -3094 -7 -6870 l1 -6865 1387 -3 1387 -2 0
6870 c0 3778 -3 6871 -7 6871 -27 4 -2756 3 -2761 -1z"/>
</g>
</svg>
