<?xml version="1.0" encoding="utf-8"?>
<!-- Generator: Adobe Illustrator 24.1.0, SVG Export Plug-In . SVG Version: 6.00 Build 0)  -->
<svg version="1.1" id="Layer_1" xmlns="http://www.w3.org/2000/svg" xmlns:xlink="http://www.w3.org/1999/xlink" x="0px" y="0px"
	 viewBox="0 0 978.4 399.35" style="enable-background:new 0 0 978.4 399.35;" xml:space="preserve">
<path d="M82.89,75.39c4.7-3.54,10.81-4.4,16.12-2.49l-1.72,8.3c-3.65-0.99-6.75-0.47-9.45,1.57c-2.16,1.63-2.81,4.29-0.95,6.75
	c0.64,0.85,1.59,1.46,2.8,1.63c2.3,0.32,4.07-0.05,8.31-1.31c3.45-1.03,4.9-1.51,8.16-1.68c4.47-0.47,7.68,0.74,11.18,4.74
	c2.61,3.47,3.59,7.32,2.92,11.57c-0.66,4.24-3.03,7.84-7.11,10.91c-7.4,5.57-16.23,4.75-22.86,0.92l3.99-8.81
	c5.62,3.13,10.21,3.29,13.83,0.57c3.47-2.61,3.96-5.64,1.41-9.03c-0.99-1.31-2.22-1.83-4.33-1.57c-1.04,0.06-2.03,0.2-2.81,0.43
	c-1.56,0.33-5.17,1.48-6.81,1.87c-7.29,1.87-12.73,0.41-16.33-4.36c-2.32-3.08-3.14-6.57-2.48-10.33
	C77.39,81.23,79.42,78,82.89,75.39 M160.44,37.96c-1.97,3.41-2.73,7.27-2.26,11.68c0.46,4.41,2.02,8.13,4.65,11.05
	c2.73,2.91,6.15,4.11,10.28,3.67c4.13-0.43,7.23-2.31,9.2-5.72c2.07-3.42,2.81-7.37,2.35-11.79c-0.46-4.41-2.01-8.03-4.74-10.94
	c-2.64-2.93-6.07-4.21-10.19-3.78C165.6,32.57,162.51,34.54,160.44,37.96 M155.92,67.83c-4.82-4.34-7.56-10.07-8.29-17.07
	c-0.74-7,0.75-13.17,4.56-18.42c3.81-5.25,9.41-8.26,16.61-9.02c7.2-0.76,13.2,1.04,18.02,5.38c4.82,4.34,7.65,10.06,8.39,17.06
	c0.74,7-0.84,13.18-4.66,18.43c-3.81,5.25-9.32,8.25-16.51,9.01C166.84,73.95,160.74,72.17,155.92,67.83 M261.67,61.93
	c3.01-2.29,5.15-5.81,6.43-10.56c1.27-4.75,1.18-8.87-0.31-12.26c-1.46-3.49-3.98-5.66-7.52-6.61c-3.54-0.95-6.8-0.33-9.81,1.96
	c-2.99,2.2-5.13,5.72-6.4,10.47c-1.27,4.75-1.18,8.87,0.28,12.36c1.49,3.39,4,5.56,7.54,6.51
	C255.42,64.76,258.69,64.13,261.67,61.93 M278.34,54.12c-4.09,15.28-13.76,22.28-27.45,18.61c-5.68-1.52-10.17-6.02-11.12-9.57
	l-1.45,5.4l-9.69-2.6L246.31,0L256,2.6l-6.49,24.22c1.54-1.29,3.66-2.12,6.5-2.65c2.84-0.54,5.34-0.57,7.67,0.06
	C277.47,27.92,282.34,39.21,278.34,54.12 M349.94,108.45l-29.2-18.25c-4.04,6.46-3.34,13.72,3.12,17.76
	c4.58,2.86,10.39,2.85,15.14-0.21l5.49,7.41c-9.23,5.49-16.26,5.99-25.34,0.32c-13.58-8.49-12.07-23.46-5.93-33.28
	c6.13-9.82,18.93-17.74,32.51-9.26c13.17,8.23,12.28,22.57,6.51,31.82L349.94,108.45z M341.03,80.47
	c-5.48-3.43-11.38-1.99-15.68,2.71l20.04,12.52C347.87,90.1,346.84,84.1,341.03,80.47 M48.29,162.09l7.09-7.09L7.09,106.7L0,113.8
	L48.29,162.09z M390.14,162.09l47.74-47.74l-7.5-7.5l-47.75,47.74L390.14,162.09z M571.78,309.13l51.72-43.4l-6.82-8.13L564.96,301
	L571.78,309.13z M648.35,346.2c4.45-5.7,8.83-9.26,13.26-10.7c4.49-1.51,8.11-1.13,10.92,1.06c1.75,1.37,2.97,2.93,3.59,4.64
	l7.01-6.15c-1.04-1.8-2.4-3.35-4.15-4.71c-4.26-3.32-10.78-4.38-16.79-1.85l4.99-6.39l-7.9-6.18l-29.93,38.31l7.9,6.18L648.35,346.2
	z M791.9,350.74l-9.36,35.5l-8.58-35.5h-9.65l-8.58,35.5l-9.36-35.5h-10.61l15.43,48.61h9.16l8.78-34.34l8.78,34.34h9.16
	l15.43-48.61H791.9z M859.49,323.82l8.01-6.04l29.26,38.83l-8.01,6.04L859.49,323.82z M854.21,316.81c-3.7-0.59-6.38-4.13-5.84-7.92
	c0.47-3.86,4.02-6.53,7.86-5.92c3.78,0.53,6.45,4.07,5.92,7.86C861.63,314.48,857.94,317.26,854.21,316.81 M950.09,315.92l7.09-7.09
	l-13.91-13.91c-4.5-4.5-7.16-8.93-8.12-13.3c-0.89-4.43-0.2-7.84,2.18-10.23c3.55-3.55,7.44-3.2,11.6,0.96l22.37,22.37l7.09-7.09
	L953.77,263c-6.55-6.55-14.32-6.28-20.39-0.2c-4.57,4.57-6.34,10.98-4.71,17.53l-5.87-5.87l-7.09,7.09L950.09,315.92z"/>
</svg>
