<svg xmlns="http://www.w3.org/2000/svg" viewBox="0 0 1242.37 115.35"><g id="Layer_2" data-name="Layer 2"><g id="Layer_1-2" data-name="Layer 1"><path d="M1165.7,85.05c-.65.38-1.31.78-2,1.15s-1.86,1.15-2,1c-1.51-1.68-3.9-.06-5-1.06a9.73,9.73,0,0,1-3.61-5.93c-.59-4.47.82-8.59,2.33-12.56a91.35,91.35,0,0,0,2.73-9.86,17.69,17.69,0,0,1,1-2.59c1.84-4.25,2.58-8.86,4.5-13.13a55.37,55.37,0,0,0,2.34-6c.66-2.1,2-3.55,3-5.3a10.9,10.9,0,0,0,1.12-3.5c.34-2.39,1.8-4,3.21-5.7a6.51,6.51,0,0,1,5.53-2.43c1.25-2.36,3.48,1,4.82-.83,1.23,1,2.37,2.7,3.69,2.84,2.18.22,2.42,1.69,3.22,3a37.1,37.1,0,0,0,3.65,5.46c1.37,1.55,1,4.44,3.69,4.91.29,2.75,3.46,4.18,3.26,7.14,1.24.46.23,2.79,2.26,2.69.24,0,.53,1,.77,1.47,1.48,3.08,3.23,6,4.92,9,1.26,2.2,1.12,2.28,3.73,3.63-.53-3-1.55-5.79.18-8.59.45-.73.13-1.94.14-2.93,0-2.08-.09-4.13,1-6.1,1.92-3.54,1.78-7.66,3-11.41,1.71-5.12,3.32-10.28,5-15.41.43-1.31.75-2.93,1.69-3.74,1.58-1.34,1.15-2.94,1.37-4.89,1.48-1.07,3-2.71,4.89-3.39,2.76-1,5.76-1.28,9.07-2-.7,3.09,1.49,4.12,3,5.85,0,1.47.62,3.53-.15,4.67-1.07,1.62.7,2.52.16,3.78-1.59,3.74-1.94,7.83-3.21,11.66-1.36,4.11-3.25,8-3.89,12.41-.27,1.91-2.07,3.39-2,5.68,0,1.37-.68,2.53-.11,4.24s-.42,4-1.23,5.82c-.66,1.49-.87,2.82-.09,4.07s-1.82,2.63.42,3.5c-.4,1.14-.54,2.48-1.26,3.36-.88,1.09-.47,2.18-.63,3.26-.37,2.52.93,5.23-.93,7.56.73.55,1.12,1.11.1,1.77s-1.22,1.79-1.19,3c.06,2.78-2.66,4.18-3.4,6.58-2.65-.51-3.53,2-5,2.94a18.46,18.46,0,0,0-4.3-.81c-3.27.19-5.34-1.7-7.24-3.86a15.86,15.86,0,0,1-3.13-4.1c-.68-1.56-2.34-2.66-3.36-4.11a42.3,42.3,0,0,1-2.84-4.82,24.15,24.15,0,0,1-1.42-3.4c-1-2.87-4.16-4.41-4.61-7.59-2.71-1.38-2.2-5-4.59-6.6l.94-1.17A21,21,0,0,1,1187.4,52a6.94,6.94,0,0,1-1.24-2c-.25-.67.3-1.61-1-1.79-1.91-.26-.22-.91-.07-1.52l-4.66-4.43c-1.91,6.28-5.51,12-6.33,18.8a14.12,14.12,0,0,1-2,4.67c-2.16,4-2,8.75-3.95,12.86C1167.24,80.58,1166.61,82.66,1165.7,85.05Z"/><path d="M999.73,76.75c-.38,1.1-.41,1.9-.81,2.19-3.65,2.64-5.21,6.92-8,10.2-.88,1-1,3.26-1.87,3.56-1.88.64-1.45,2.07-2.09,3.18a67.86,67.86,0,0,1-5.23,7.33,36.86,36.86,0,0,1-3.07,3.1c-1.77-.38-3.89.78-5.84-.79-.18-.15-.9.35-1.37.54.31-2.68-2.62-1-3.29-2.46-.57-1.27-1.46-2.4-2-3.69-1.11-3-2.8-5.79-2-9.16-1.7-3.57-1.18-7.41-.88-11.07s.39-7.28,1.72-10.74a3.16,3.16,0,0,0,.15-1.43c-.7-4.94,1.64-9.7.88-14.56-.18-1.21,1.75-1.51.57-2.92-.47-.58.42-2.2.54-3.36s0-2.33,0-3.5c0-1.33-.06-2.67,0-4,.07-1.09-.51-2.37.75-3.2.05,0-.17-.45-.27-.68-1.21-3-.47-5.61,1.91-7.92h4.4c3.77,2.27,2.55,6,4.16,8.72a1.72,1.72,0,0,1,0,1.47c-1.25,2.09.09,4.13,0,6.18s-1,4.45-.44,6.38c.64,2.33-.21,4.69.58,6.74.59,1.53-2,2.47-.26,3.78-1.19,1,.23,2.48-.76,3.77-.79,1,.61,2.93-.84,4.12-.11.09-.28.32-.24.38,1.85,3.26.47,7,1.19,10.41A3.64,3.64,0,0,0,981,76.8c.52-4.19,4.21-6.24,5.89-9.6,1-2,2.72-3.55,4.17-5.27a15.73,15.73,0,0,1,2.13-2.11,11.81,11.81,0,0,1,2.4-1.41c.77-.35,2.12-1,2.32-.73,1.18,1.41,1.6-.39,2.38-.48,3.14-.36,5.46,1.38,7.93,2.69,1.27.68,4.08,5.43,5,7.39.39.82,1.52,1.3,1.89,2.13s-.29,2.2.79,3.2a11.8,11.8,0,0,1,1.67,2.92c.6-1.58,1.39-2.85,1.49-4.17.07-.8,2-1.21.46-2.37-.24-.19.44-1.55.64-2.38s.28-1.55.51-2.29c.15-.48.73-4.67.81-5.24a41.51,41.51,0,0,1,.85-4.42c.14-.58.86-1.14.79-1.64-.63-4.77,1.15-9.35,1.07-14.08,0-1.46-.29-3.18.36-4.32s.09-1.3-.36-1.84c2.63-1.54,1.79-5,3.88-6.9,1.46-1.31,1.84-3.41,4.13-4.31,2.52-1,8.75-3.19,11-2.17a19.92,19.92,0,0,1,5.68,4.27c.57.58.24,2.17.11,3.27-.11.9-.79,1.77-.76,2.64,0,1.42-.79,2.05-1.73,2.71-1.16.81-2.33,1.6-3.4,2.33.27,4.67,0,8.93-1.71,13.06-.54,1.27-.29,2.94-.19,4.41.2,3.17.11,5.72-1.13,7.69-.69,1.11-1.39,1.77-.13,2.85.23.2.21.93.06,1.31a102.5,102.5,0,0,0-4,13.85c-.38,1.51-1.6,2.91-1.9,4.71a11.06,11.06,0,0,1-2,4.15,9.11,9.11,0,0,0-1,2.59c-.53,1.75-1.17,3.82-2.48,4.88s-2.22,3-3.75,3.9a9.88,9.88,0,0,1-8.74.73,11.64,11.64,0,0,1-6.11-5.26,73.4,73.4,0,0,0-4.69-6.49,15.63,15.63,0,0,1-2.23-4.59C1002.36,80.53,1001,78.88,999.73,76.75Z"/><path d="M853.4,67.55c3.31,1.8,6,3.32,8.73,4.72a16.58,16.58,0,0,0,4.67,1.94c1.81.31,2.45,2.94,4.66,2.08.89,2.44,3.45,2,5.16,3,2,1.22,4,2.51,5.88,3.89s3.43,2.93,5.28,4.19c2.58,1.75,5.3,3.28,8,4.9l3.39,3a6.31,6.31,0,0,1,0,7.15,25.35,25.35,0,0,1-2.33,2.82,27.57,27.57,0,0,1-16.19-3.79c-2.34-1.35-5.06-2.24-7.45-3.67s-5.3-2-7.24-4.24c-2.56.22-4-2.14-6.44-2.64S855.26,88,853,87.44c-2.57-.65-4-2.42-6-3.7-2.45-1.6-5.4-2.43-7.64-4.45-2.18,1.11-1.76-1.78-3.51-2.08-.43.93-2.69,1.07-1.1,3.14.1.13.24.24.35.36-2.55,2.34-1.52,5.65-2.28,8.47a16.48,16.48,0,0,0-.6,3.74c-.1,4.28-1.11,6.75-4.52,10.37h-8.11a19,19,0,0,0-1.17-3.22c-1.41-2.37-3.21-4.59-1.51-7.56-1.21-1.37,1.67-3.19-.47-4.47a28.46,28.46,0,0,0,1.55-5.13,21.38,21.38,0,0,1,1.2-5c.58-1.59,1.19-3.18,1.68-4.8a19.53,19.53,0,0,0,.83-3.77,36,36,0,0,1,3.89-11.95,3.52,3.52,0,0,0,.57-1.75c0-2.48,2-3.92,2.78-5.85s.76-4.2,2.26-6.09a29,29,0,0,0,4.34-7.18c.86-2.14,4.34-5.83,6.6-7.68.9-.74,1.64-1.67,2.49-2.46,3.89-3.57,8-6.63,13.57-7.07,3.24-2.55,6.41.23,9.62.13,4.15,2.6,7.89,5.58,8.31,10.94.12,1.48.79,2.75,1,4.1.24,1.8.65,3.83-.73,5.5,2,2.19-.79,3.22-1.17,4.83-.77,3.26-3.18,5.66-4.69,8.54a8,8,0,0,1-3.68,4,17.31,17.31,0,0,0-4.83,3.77,17.82,17.82,0,0,1-6.62,4.6C854.77,65.87,854.4,66.53,853.4,67.55Zm-9.33-14.33c4.7-.34,7-4.66,11-5.39.43-2.54,3-3.34,4.2-5.24,1.71-2.78,3.73-5.53,2.51-9.34-.82.08-1.8-.12-2.33.28-2.69,2-5.93,3.31-7.77,6.52a12.83,12.83,0,0,1-3.63,4C845.16,46.15,844.51,49.63,844.07,53.22Z"/><path d="M346.13,110.73c-2,.63-3.5,1-4.92,1.59a7.62,7.62,0,0,1-7.69-1.16,29.32,29.32,0,0,1-3.5-3.55c-.82-1.09-1.81-2.46-1.78-3.69.06-3.24-.81-6.54.44-9.76.24-.63-.56-1.61-.49-2.39s.91-1.73.89-2.58a67.47,67.47,0,0,1,1-13.08,10.77,10.77,0,0,0-1.39-6.88c-2.41-4.78-1.74-7.86,1.91-11.89.45-.49.94-.94,1.41-1.42a81.51,81.51,0,0,1,3.43-16.53c1.05-3.57,3.73-6.78,2.71-10.87a31.92,31.92,0,0,1-1-4.58c-.23-2.23-.23-2.34,2-4.54,1.72-1.7,3.39-3.54,6.36-3.17,2.45.31,5-.11,7.47.1A15.83,15.83,0,0,1,366.3,25c.07.14.24.23.34.36s.91,7,.86,7.11c-1.06,1.77.56,4.24-1.71,5.81-1.54,1.06-1.28,3.41-3.39,4.62-1.58.89-2.11,3.63-3.31,5.94,3.23.94,5.65,3.75,9.19,4.51.28.06,5.72,6.26,5.66,6.29-2.29,1.43,1.41,3.4-.44,4.89a2,2,0,0,0-.34,1.27c2.19.92-1.69,3.08,1.36,4l-2.38,1.43a24,24,0,0,1,.94,2.48c-2,1-1.84,3.32-2.71,5-2,3.82-3,4.89-6.62,8.71-1.91,2-3.05,4.73-5,6.88-2.2,2.44-3.94,5.3-6,7.87s-4.43,5.16-6.62,7.76C346,110.07,346.13,110.51,346.13,110.73Zm-3.91-19.15c2.14-2.46,3.92-4.53,5.71-6.58.33-.37.92-.65,1-1.07.85-3.53,3.7-5.53,6-8a36.44,36.44,0,0,0,4.19-7.21,2.64,2.64,0,0,0-2.37-3.44,9.86,9.86,0,0,0-2.73.57c-1.47.43-3.06,1.54-4.36,1.26-2.21-.48-2.16,1.83-3.57,2.16s-2.63.81-3.88,1.21Zm2.71-49.9c1.18-.49,2-.55,2.19-.94,1.58-2.73,4-5,5.31-8.59-1.76.23-3.36,0-4.11.65a10.17,10.17,0,0,0-2.15,4A45.57,45.57,0,0,0,344.93,41.68Z"/><path d="M445.19,49.55c3.32-2.85,7.28-2.7,10.66-4.19a21.39,21.39,0,0,1,11-2c.18-.73.28-1.19.44-1.86L478.5,40c.64,1.26,1.14,2.22,1.59,3.1-.91,4.79-5,6-8.62,7-2.56.74-4.8,2.17-7.39,2.74a41.78,41.78,0,0,0-7.16,2c-2,.82-4.36.72-6.35,1.56-2.4,1-5.26,1.38-6.91,3.81-3.21-.1-1.82,3.37-3.48,4.47,1.5,1.9-.4,3.7-.17,5.66A20.06,20.06,0,0,0,442,77.64c1.52,2.94,2.07,3.29,5.13,2.18a34.09,34.09,0,0,0,6.29-3c2.31-1.42,5.3-2.34,8.07-1.36,1.29-1.21,2.08-2.44,3.93-2.23,2.38.27,4.94-.42,7,1.11A5.05,5.05,0,0,1,474.07,77a16.72,16.72,0,0,1,.06,3.79c-3.12,3.11-6.24,6.52-11.07,7.54-.57.12-1,.7-1.55,1.08A57.35,57.35,0,0,1,451,95.3c-3.29,1.52-10.44,2.69-13.66,1.93-1-.24-1.75-1.34-2.69-1.92-1.45-.89-3-1.67-4.46-2.5.49-2-1.39-2.79-1.94-4.19a86.47,86.47,0,0,1-3-9.74c-.29-1.06.07-2.2-1-3.16-.3-.27.75-1.85.43-2.27-1-1.3,1.27-1.74.51-2.91s1.28-2.29.34-3.29c-1.4-1.48.74-1.9.64-3-.26-2.79,1.53-5.21,1.78-7.69.41-4.07,2.57-7.35,3.63-11.07.95-3.37,3-6.41,4.45-9.64a15.12,15.12,0,0,1,6.22-6.56c1.76-1.1,3.62-2,5-3.61.69-.81,8.3-5,9.29-5.31a5.59,5.59,0,0,1,6.16,2.84c1.28,2.23-.26,3.76-1.23,5.09a20.18,20.18,0,0,1-8.14,6.77c-1.8.75-1.53,2.78-3.1,3.15-2.1.49-1.9,2.23-2.33,3.73a4.49,4.49,0,0,1-1.4,2.37C444.78,45.59,445.13,47.22,445.19,49.55Z"/><path d="M236.8,20.29h2.47c5.31,0,6.59.9,10.4,4.93a85.62,85.62,0,0,1,9.5,11.59,22.47,22.47,0,0,1,4.07,13.87c-.06,1.29-2.3,2.09-.57,3.93.64.67-.26,2.84-.55,4.31A13,13,0,0,1,261.07,63c-1.36,2.28-1.7,4.91-3.17,7.22-3.16,5-6.91,9.45-10.26,14.25-1,1.48-2.55,2.09-3.6,3.38s-2.34,3.22-3.9,3.8c-4.86,1.83-9.44,5.66-15.2,3-2.77.79-4.82-1.07-6.63-2.42-2.7-2-5-4.92-5.06-8.43-.07-3.33-1.22-6.89.88-10.08-1.2-1.89.49-3.79,0-5.66-.43-1.58,1.19-3,.35-4.54,1.45-1.59.19-3.54.71-5.21s1.3-3.13,2-4.69c1.39-3.28,1.43-7,3.37-10.09a53.36,53.36,0,0,0,4.55-8.62c.18-.43.11-1,.39-1.33,2.08-2.16,4.62-4,6.22-6.46C233.13,24.8,234.19,22.3,236.8,20.29ZM225.13,82.45c2-.48,3.76.56,5.17-.83,2.34-2.29,6.35-2.9,7-6.93,0-.2,1.21-.23,1.23-.4.16-1.64,2-1.71,2.58-2.84,2.72-5.19,5.81-10.14,7.46-15.91,1.24-4.34,0-7.7-1.91-11.22-2.13.29-2.1-1.89-2.64-2.84a11.4,11.4,0,0,0-8.52-6.17,11.4,11.4,0,0,0-1.35,1.92c-1.38,3.09-2.46,6.33-4.07,9.3-3.29,6.09-4.15,12.8-4.84,19.45C224.7,71.24,225.13,76.59,225.13,82.45Z"/><path d="M94.48,107.05c-.51-2,3.24-2.92.61-5.28,1.63-1.25,3.13-2.61,4.69-3.9,2.69-2.23,4.9-2.55,7.75-.77a2.51,2.51,0,0,0,2.28-.07c4.24-3.07,9.14-5.37,11.63-10.46.9-1.83,3.14-2.66,3.93-4.88a17,17,0,0,1,2.72-5.38,4.61,4.61,0,0,0,1.09-3.55,56.1,56.1,0,0,1-.05-5.94c-4.67-4.42-10.5-7.19-15.32-11.35-3-.4-4-2.85-5.22-5.15a6.85,6.85,0,0,1-.56-4.49c.19-1.65.89-3.65-.61-4.85.88-1.73,1.86-3.33,2.53-5,1.21-3.09,1.69-4,3.85-5.81a2.28,2.28,0,0,0,.7-.72,9.37,9.37,0,0,1,4-4.76c1.47-.8,2.1-3.14,4.35-2.52,1.33-1.71,3.31-2.36,5.18-3.17,1.71-.75,3.33-1.77,5-2.5,2.37-1.06,5.13-1.85,8.1-.86.64,1.08,1.36,2.28,2.09,3.52-.73,1.63-1.12,3.62-3.64,3.3-5.71,3.22-11.33,6.59-15.64,11.68-1.41,1.66-1.94,3.87-3.45,5.59-1.29,1.47-.21,4.85,1.66,6,4.17,2.59,8.82,4.38,12.77,7.38a6.16,6.16,0,0,0,.7-.7l3.87,5.71c2.49-.2,1.13,2.76,2.08,2.93,2.45.44,1.08,2.31,1.71,3.3a8.25,8.25,0,0,1,.94,4.13c.2,2.21-.73,4.54.89,6.65.32.42-.53,1.68-.77,2.57-.66,2.39-1.74,4.61-2.26,7.09a18.6,18.6,0,0,1-3.09,6.18,68,68,0,0,1-6.38,8.33c-1.55,1.67-2.66,3.72-4.76,5-1.92,1.21-3.32,3.24-5,4.84a8.12,8.12,0,0,1-2,1.16c-2.07,1-4.21,1.91-6.24,3-5.42,3-9.11,2.09-13.28,1.12a6.59,6.59,0,0,1-3.93-2.56A39,39,0,0,1,94.48,107.05Z"/><path d="M557.16,83.1c6.05,1.17,11-1.59,16.1-3,3.75-1,7.31-2.11,11.33-1.68,2.87,2.76,2.87,2.76,2.54,10.32-1.65,1.47-4.25,1.7-5.2,4.17a2.76,2.76,0,0,1-1.88,1.33,8.52,8.52,0,0,0-4.58,2.22c-.24.23-.5.69-.7.67-3.1-.36-5.23,1.94-7.77,3-1.32.55-2.2-1.69-3.17,0-.83,1.4-2.19,1.21-3.5,1.2s-2.67.06-4,0c-3.55-.2-6.9-1.08-9.4-3.76-1-1.08-2.44-1.44-3.32-3-1.12-1.94-3.06-3.27-2.57-6,.17-.93-1-2.11-.82-3.05.23-1.26-1.16-2-.54-3.37a7.58,7.58,0,0,0,.4-3.8c-.63-5.92,1-11.69,1.14-17.56,0-1.9,1.17-3.8,1.93-5.65.45-1.11,1.84-2.07.09-3.24a1,1,0,0,1-.1-.91c2.56-2.79,2-6.53,2.92-9.78s2.6-6.27,3.82-9.4c.84-2.15,1.86-4.23,2.67-6.39,2.17-5.79,6.86-10,9.64-15.47.41-.79,1.78-1.09,2.71-1.62,4,.54,4.49,3.76,5.39,7.15A16.34,16.34,0,0,0,566,22.87a68,68,0,0,1-5.56,12.67c-.78,1.36.23,3.15-1.2,4.54-.63.62-.3,2.15-.61,3.2s-1.6,2.85-1.23,3.31c.84,1-.42,1.95.17,2.55,1.24,1.25-1.37,1.77-.41,2.85-1.37,3.77-.88,7.69-1,11.57-.05,1.39.63,3-.83,4.16a1.42,1.42,0,0,0-.1,1.39c1.52,2.27.68,4.37.06,6.71C554.55,78.36,556,80.7,557.16,83.1Z"/><path d="M32.14,11.68a27.39,27.39,0,0,1-.83,6.76c-.61,2.08-1.37,4.18-1.82,6.22-.9,4.16-3.09,7.79-4,11.85-.5,2.14-.54,4.35-1.27,6.47-.56,1.62-.38,3.54-1.13,5-1,2-.88,4-.92,6.12,0,1.44.05,2.81-1,4.11-1.73,2.21-1,5.15-1.92,7.68-.62,1.69-.5,3.68-1,5.57-.83,3.24-.77,6.69-1.17,10-.09.74-.81,1.43-.8,2.14,0,2.82-1.12,5.75,1.7,8.26.94.84,2.31,3.25.16,5.06a4.06,4.06,0,0,0-1,2.05C16,103.7,12.48,105,8.26,105.32a5.43,5.43,0,0,0-1.67.8c-.43-.53-.84-1.53-1.52-1.77-2.95-1-4.41-3.37-3.95-6.73.07-.49,0-1,0-1.49.2-1.6-2-3-.77-4.46s.42-3.17.78-4.7c.22-.89,1.16-2,.88-2.55-.77-1.65,1.92-2.29.81-4-.88-1.36.51-2.7.75-4.08s.26-2.87.57-4.27c.43-2,.62-4.15,1.65-5.78,1.59-2.51.93-5.36,1.91-7.89-1.07-1.19.37-2.08.71-2.7a23,23,0,0,0,2.79-8.88,32.31,32.31,0,0,1,2.09-8.1A69.11,69.11,0,0,1,16,31.83c1.1-2.17,1.27-4.79,2.2-7.07s2.38-4.34,3.45-6.57c.74-1.52,1.07-3.24,1.82-4.74C26,8.48,27,8.28,32.14,11.68Z"/><path d="M761.44,11.49l2-2h4.44c.65,1,2,2.13,2.11,3.36a47.37,47.37,0,0,1-.41,10.31c-.14.93.51,1.22.37,1.79-.17.74-.89,1.47-.8,2.13.6,4.29-1,8.35-1.19,12.58-.09,2.09-.3,4.59-1.32,6.37-.82,1.45.93,1.51.48,2.39a8.66,8.66,0,0,0-1,2.58c-.41,3-.52,6.09-1.09,9.07-.43,2.26-1.85,4.28-1.94,6.67-2.25,1.19.46,3.21-.9,4.84-1.11,1.33-1.46,3.37-2,5.14s-.6,3.74-1.19,5.52c-1.1,3.32-2.23,6.6-2,10.17.09,1.09-.13,2.11.67,3.24,1.27,1.81,0,3.78-.93,5.31s-2.19,2.81-4.47,2.46c-1.12-.18-2.39.53-4.2,1-.14-.22-.36-1.07-.86-1.29-4.55-2-5.68-5.73-5.24-10.29a12.29,12.29,0,0,0,0-3.48c-.16-.86,1.95-1.34.31-2.32a2.79,2.79,0,0,1,.58-1,3.2,3.2,0,0,0,1.18-3c-.06-1.79-.19-3.49,1.54-4.92.75-.61.4-2.42.82-3.59,1.52-4.2,2.33-8.63,4.47-12.65.82-1.56.12-3.66,1-5.57.84-1.76,1.33-3.75,2-5.63s-.69-3.94.9-5.63c-2-2,.39-3.24.83-4.83.08-.29.27-.56.33-.85.39-1.71-.49-3.46.59-5.28a4.44,4.44,0,0,0,.69-4.08c-.24-.56.6-1.58,1-2.37a17.49,17.49,0,0,0,1.83-6.77C760.33,17.77,761,14.78,761.44,11.49Z"/><path d="M1125.72,23.82l5.1,2.33c1.35,6-1.62,10.49-4.16,14.83-1.35,2.3-2.13,4.81-3.39,7.12a68.46,68.46,0,0,0-3.32,7.08c-1.23,3-1.54,6.33-3.31,9.1-.17.27-.53.57-.48.78.48,2.18-.79,4-1,6.08-.43,4-.68,8-1,12-.26,2.94-.2,3.45,1.12,4.68a7.13,7.13,0,0,0,1.88.81,19,19,0,0,0,0,2.82c.37,2.39.26,2.33-1.59,4-1.47,1.29-2.92,2.54-4.84,2.81a9.14,9.14,0,0,1-10.51-9.05c0-3.16-1-6.49.82-9.52-1.78-1.12-.29-2.09,0-3.21a12.25,12.25,0,0,0,.54-4.24,8.3,8.3,0,0,1,.48-3c1.09-3.7,2-7.45,4-10.8.32-.54.88-1.06.91-1.61.34-5,4.33-8.54,5.32-13.27,3.22-3.5,4.9-8,7.71-11.78.91-1.21,1.31-2.81,2.18-4.06A48.42,48.42,0,0,1,1125.72,23.82Z"/></g></g></svg>